<svg viewBox="0 0 32 32" fill="none" xmlns="http://www.w3.org/2000/svg" class="h-[32px] text-white"><path d="M12.2339 19.5273H6.58938C5.54766 19.5273 4.70312 20.3719 4.70312 21.4136V26.1149C4.70312 27.1528 5.55155 28.0012 6.58938 28.0012H25.4091C26.4468 28.0012 27.2954 27.1528 27.2954 26.1149V23.9239C27.2954 22.8821 26.4508 22.0376 25.4091 22.0376H19.7646" stroke="white" stroke-width="2" stroke-linecap="round" stroke-linejoin="round"></path><path fill-rule="evenodd" clip-rule="evenodd" d="M16.517 4.31627L17.3796 6.04166C17.4652 6.2116 17.6287 6.32836 17.8182 6.3556L19.7498 6.63323C20.0624 6.67474 20.283 6.96144 20.2415 7.27538C20.2246 7.40251 20.165 7.52187 20.0715 7.61138L18.6743 8.95407C18.5368 9.08379 18.4746 9.2745 18.507 9.4613L18.8378 11.3566C18.8884 11.6732 18.673 11.9702 18.3564 12.0208C18.2332 12.0416 18.1048 12.0195 17.9932 11.9612L16.2679 11.0673C16.0979 10.9791 15.8968 10.9791 15.7268 11.0673L14.0002 11.9625C13.7174 12.1117 13.3659 12.004 13.2167 11.7212C13.157 11.6096 13.1362 11.4812 13.1557 11.3566L13.4864 9.4626C13.519 9.27579 13.4567 9.08508 13.3191 8.95407L11.9207 7.61267C11.6936 7.39343 11.6872 7.0315 11.9064 6.80316C11.9959 6.71106 12.1153 6.65008 12.2424 6.63323L14.174 6.3556C14.3635 6.32966 14.527 6.2116 14.6126 6.04166L15.4778 4.31627C15.6258 4.02958 15.9799 3.91671 16.2666 4.0659C16.3743 4.12168 16.4611 4.2086 16.517 4.31627Z" stroke="white" stroke-width="2" stroke-linecap="round" stroke-linejoin="round"></path><path d="M19.7651 28.0005V17.3355C19.7651 16.2938 18.9205 15.4492 17.8788 15.4492H14.1207C13.0828 15.4492 12.2344 16.2978 12.2344 17.3355V28.0005" stroke="white" stroke-width="2" stroke-linecap="round" stroke-linejoin="round"></path></svg>