<svg viewBox="0 0 32 32" fill="none" xmlns="http://www.w3.org/2000/svg" class="h-[32px] text-white"><path d="M16.6426 19.5782C18.6565 19.5782 20.2891 17.9456 20.2891 15.9317C20.2891 13.9178 18.6565 12.2852 16.6426 12.2852C14.6287 12.2852 12.9961 13.9178 12.9961 15.9317C12.9961 17.9456 14.6287 19.5782 16.6426 19.5782Z" stroke="currentColor" stroke-width="2" stroke-linecap="round" stroke-linejoin="round"></path><path d="M16.6684 24.3449C17.7214 24.3449 18.5751 25.1985 18.5751 26.2515C18.5751 27.3046 17.7214 28.1582 16.6684 28.1582C15.6154 28.1582 14.7617 27.3046 14.7617 26.2515C14.7617 25.1985 15.6154 24.3449 16.6684 24.3449Z" stroke="currentColor" stroke-width="2" stroke-linecap="round" stroke-linejoin="round"></path><path d="M16.6719 24.3445V20.0312" stroke="currentColor" stroke-width="2" stroke-linecap="round" stroke-linejoin="round"></path><path d="M16.6684 7.97154C17.7214 7.97154 18.5751 7.11789 18.5751 6.06487C18.5751 5.01185 17.7214 4.1582 16.6684 4.1582C15.6154 4.1582 14.7617 5.01185 14.7617 6.06487C14.7617 7.11789 15.6154 7.97154 16.6684 7.97154Z" stroke="currentColor" stroke-width="2" stroke-linecap="round" stroke-linejoin="round"></path><path d="M16.6719 7.9707V12.2838" stroke="currentColor" stroke-width="2" stroke-linecap="round" stroke-linejoin="round"></path><path d="M8.4813 16.1586C8.4813 17.2116 7.62766 18.0653 6.57464 18.0653C5.52161 18.0653 4.66797 17.2116 4.66797 16.1586C4.66797 15.1056 5.52161 14.252 6.57464 14.252C7.62766 14.252 8.4813 15.1056 8.4813 16.1586Z" stroke="currentColor" stroke-width="2" stroke-linecap="round" stroke-linejoin="round"></path><path d="M8.48047 16.1621H12.7936" stroke="currentColor" stroke-width="2" stroke-linecap="round" stroke-linejoin="round"></path><path d="M24.8546 16.1586C24.8546 17.2116 25.7083 18.0653 26.7613 18.0653C27.8143 18.0653 28.668 17.2116 28.668 16.1586C28.668 15.1056 27.8143 14.252 26.7613 14.252C25.7083 14.252 24.8546 15.1056 24.8546 16.1586Z" stroke="currentColor" stroke-width="2" stroke-linecap="round" stroke-linejoin="round"></path><path d="M24.8521 16.1621H20.5391" stroke="currentColor" stroke-width="2" stroke-linecap="round" stroke-linejoin="round"></path><path d="M10.8767 21.9467C11.6213 22.6913 11.6213 23.8985 10.8767 24.6431C10.1321 25.3877 8.92485 25.3877 8.18025 24.6431C7.43565 23.8985 7.43565 22.6913 8.18025 21.9467C8.92485 21.2021 10.1321 21.2021 10.8767 21.9467Z" stroke="currentColor" stroke-width="2" stroke-linecap="round" stroke-linejoin="round"></path><path d="M10.8828 21.9493L13.9326 18.8994" stroke="currentColor" stroke-width="2" stroke-linecap="round" stroke-linejoin="round"></path><path d="M22.4565 10.3689C23.2011 11.1135 24.4083 11.1135 25.1529 10.3689C25.8975 9.62427 25.8975 8.41704 25.1529 7.67244C24.4083 6.92784 23.2011 6.92784 22.4565 7.67244C21.7119 8.41703 21.7119 9.62427 22.4565 10.3689Z" stroke="currentColor" stroke-width="2" stroke-linecap="round" stroke-linejoin="round"></path><path d="M22.4561 10.373L19.4062 13.4229" stroke="currentColor" stroke-width="2" stroke-linecap="round" stroke-linejoin="round"></path><path d="M10.8795 10.3689C10.1349 11.1135 8.92763 11.1135 8.18303 10.3689C7.43843 9.62427 7.43843 8.41704 8.18303 7.67244C8.92763 6.92784 10.1349 6.92784 10.8795 7.67244C11.6241 8.41704 11.6241 9.62427 10.8795 10.3689Z" stroke="currentColor" stroke-width="2" stroke-linecap="round" stroke-linejoin="round"></path><path d="M10.875 10.3721L13.9248 13.4219" stroke="currentColor" stroke-width="2" stroke-linecap="round" stroke-linejoin="round"></path><path d="M22.4554 21.9467C21.7108 22.6913 21.7108 23.8985 22.4554 24.6431C23.1999 25.3877 24.4072 25.3877 25.1518 24.6431C25.8964 23.8985 25.8964 22.6913 25.1518 21.9467C24.4072 21.2021 23.2 21.2021 22.4554 21.9467Z" stroke="currentColor" stroke-width="2" stroke-linecap="round" stroke-linejoin="round"></path><path d="M22.4522 21.9503L19.4023 18.9004" stroke="currentColor" stroke-width="2" stroke-linecap="round" stroke-linejoin="round"></path></svg>