<svg viewBox="0 0 26 26" fill="none" xmlns="http://www.w3.org/2000/svg" class="h-[32px] text-white"><path d="M20.6723 23.0273H14.9451M11.0418 23.0273H5.32617M13 21.0429V17.5625M6.84005 7.16052C3.98615 7.18645 1.67969 9.10376 1.67969 12.3688C1.67969 14.4808 2.9367 16.2981 4.74373 17.1141C5.5039 17.4228 6.26149 17.5409 6.83615 17.5409H19.1532C19.7292 17.5409 20.4882 17.428 21.2587 17.1205C23.0644 16.3033 24.3175 14.4808 24.3175 12.3688C24.3175 9.10376 22.0124 7.18645 19.1584 7.16052C19.1584 5.10701 17.5474 1 12.9992 1C8.45119 1 6.84005 5.10701 6.84005 7.16052ZM14.9736 23.025C14.9736 24.1161 14.0888 25.0008 12.9978 25.0008C11.9069 25.0008 11.0234 24.1161 11.0234 23.025C11.0234 21.9341 11.9069 21.0508 12.9978 21.0508C14.0888 21.0508 14.9736 21.9341 14.9736 23.025Z" stroke="currentColor" stroke-width="2" stroke-linecap="round" stroke-linejoin="round"></path></svg>