<svg viewBox="0 0 32 32" fill="none" xmlns="http://www.w3.org/2000/svg" class="h-[32px] text-white"><path fill-rule="evenodd" clip-rule="evenodd" d="M16.4914 8.45224C16.9742 8.72048 17.1481 9.3293 16.8798 9.81206L16.0669 11.2752H18.2994C18.6537 11.2752 18.9815 11.4627 19.1613 11.7681C19.3409 12.0735 19.3455 12.4511 19.1735 12.7609L17.535 15.7097C17.2667 16.1924 16.6579 16.3664 16.1751 16.0981C15.6923 15.8299 15.5185 15.2211 15.7867 14.7383L16.5997 13.2752H14.3671C14.0129 13.2752 13.685 13.0876 13.5053 12.7822C13.3256 12.4769 13.321 12.0992 13.4931 11.7894L15.1315 8.84065C15.3998 8.35788 16.0086 8.18398 16.4914 8.45224Z" fill="white"></path><path fill-rule="evenodd" clip-rule="evenodd" d="M5.38781 8.56548C5.38781 6.21879 7.29005 4.31836 9.63493 4.31836H23.032C25.3785 4.31836 27.2792 6.21904 27.2792 8.56548V19.0199L29.0891 22.9584C29.1001 22.9825 29.1103 23.0071 29.1193 23.0319C29.9475 25.2919 28.2748 27.6867 25.8673 27.6867H6.79844C4.39277 27.6867 2.71832 25.2937 3.54633 23.0321C3.55549 23.0071 3.56566 22.9824 3.57681 22.9583L5.38781 19.0197V8.56548ZM9.63493 6.31836C8.39409 6.31836 7.38781 7.32387 7.38781 8.56548V19.2387C7.38781 19.3828 7.35661 19.5253 7.29636 19.6564L5.41273 23.7528C5.0908 24.6987 5.79356 25.6867 6.79844 25.6867H25.8673C26.8731 25.6867 27.5751 24.6979 27.2531 23.7528L25.3705 19.6561C25.3103 19.5252 25.2792 19.3828 25.2792 19.2387V8.56548C25.2792 7.32361 24.2739 6.31836 23.032 6.31836H9.63493Z" fill="white"></path><path fill-rule="evenodd" clip-rule="evenodd" d="M13.5938 23.0059C13.5938 22.4536 14.0414 22.0059 14.5938 22.0059H18.0808C18.6331 22.0059 19.0808 22.4536 19.0808 23.0059C19.0808 23.5581 18.6331 24.0059 18.0808 24.0059H14.5938C14.0414 24.0059 13.5938 23.5581 13.5938 23.0059Z" fill="white"></path><path fill-rule="evenodd" clip-rule="evenodd" d="M5.41406 19.2363C5.41406 18.6841 5.86178 18.2363 6.41406 18.2363H26.2601C26.8123 18.2363 27.2601 18.6841 27.2601 19.2363C27.2601 19.7886 26.8123 20.2363 26.2601 20.2363H6.41406C5.86178 20.2363 5.41406 19.7886 5.41406 19.2363Z" fill="white"></path></svg>