<svg xmlns="http://www.w3.org/2000/svg" viewBox="0 0 16 16" fill="none" class="h-[16px] text-white"><path d="M7.99459 9.96453L9.13559 7.99966H6.86719L8.00692 6.03418" stroke="currentColor" stroke-linecap="round" stroke-linejoin="round"></path><path d="M3.34766 10.0553C3.34766 11.5739 4.29798 12.6494 5.82108 12.6494H10.1796C11.7033 12.6494 12.6485 11.5739 12.6485 10.0553V5.9479C12.6485 4.42479 11.7033 3.34863 10.1796 3.34863H5.82108C4.30252 3.34863 3.34766 4.42479 3.34766 5.9479V10.0553Z" stroke="currentColor" stroke-linecap="round" stroke-linejoin="round"></path><path d="M6.40625 13.9986V12.6514M9.58886 13.9986V12.6514" stroke="currentColor" stroke-linecap="round" stroke-linejoin="round"></path><path d="M3.34731 6.41113H2M3.34731 9.58867H2" stroke="currentColor" stroke-linecap="round" stroke-linejoin="round"></path><path d="M6.40625 3.35024V2.00293M9.58886 3.35024V2.00293" stroke="currentColor" stroke-linecap="round" stroke-linejoin="round"></path><path d="M14.001 6.41113H12.6484M14.001 9.58867H12.6484" stroke="currentColor" stroke-linecap="round" stroke-linejoin="round"></path></svg>