<svg xmlns="http://www.w3.org/2000/svg" viewBox="0 0 32 32" fill="none" class="h-[26px] text-white"><path d="M23.7852 19.4556L26.6341 18.6357L27.454 21.4845" stroke="white" stroke-width="2" stroke-linecap="round" stroke-linejoin="round"></path><path d="M13.3086 28.0827L16.3132 23.236L22.8866 25.204L26.6398 18.6357" stroke="white" stroke-width="2" stroke-linecap="round" stroke-linejoin="round"></path><path d="M17.1911 11.0439H14.145C13.2382 11.0439 12.5039 11.7782 12.5039 12.6838C12.5039 13.5906 13.2382 14.3249 14.145 14.3249H16.0196C16.9251 14.3249 17.6594 15.0591 17.6594 15.9646C17.6594 16.8715 16.9251 17.6058 16.0196 17.6058H12.9735" stroke="white" stroke-width="2" stroke-linecap="round" stroke-linejoin="round"></path><path d="M15.082 17.6053V18.983M15.082 9.65918V11.0486" stroke="white" stroke-width="2" stroke-linecap="round" stroke-linejoin="round"></path><path d="M25.6191 14.6211C25.6191 8.80134 20.9008 4.08301 15.0811 4.08301C9.26001 4.08301 4.54297 8.80134 4.54297 14.6211C4.54297 18.2587 6.38516 21.4657 9.18865 23.3598" stroke="white" stroke-width="2" stroke-linecap="round" stroke-linejoin="round"></path></svg>