<svg viewBox="0 0 32 32" fill="none" xmlns="http://www.w3.org/2000/svg" class="h-[32px] text-white"><path d="M25.5816 11.0571C26.0589 11.8484 26.4545 12.7202 26.7219 13.6633C27.2108 15.3262 27.3029 17.0257 27.0357 18.6304C26.3728 22.6322 23.5461 26.1232 19.4508 27.4372C19.3575 27.484 19.2524 27.5073 19.1485 27.5422C13.2268 29.287 7.01433 25.8896 5.26956 19.969C3.58317 14.2094 6.74711 8.17209 12.3771 6.24052C12.5289 6.18214 12.6806 6.13674 12.8428 6.09004C14.6459 5.56596 16.4608 5.50758 18.1821 5.85654H18.1939" stroke="currentColor" stroke-width="2" stroke-linecap="round" stroke-linejoin="round"></path><path d="M27.0383 18.6327C25.9447 19.0389 23.816 19.3009 20.2057 18.0347C15.9041 16.5222 16.6787 22.1638 19.4521 27.4344" stroke="currentColor" stroke-width="2" stroke-linecap="round" stroke-linejoin="round"></path><path d="M12.3692 6.23047C12.3692 6.23047 13.9881 9.03896 12.3782 11.2883C10.7671 13.5377 9.17021 13.8764 9.52175 16.031C9.8733 18.187 12.5417 17.781 11.574 21.4262C10.9357 23.8313 9.91222 25.5216 10.2145 26.3517" stroke="currentColor" stroke-width="2" stroke-linecap="round" stroke-linejoin="round"></path><path fill-rule="evenodd" clip-rule="evenodd" d="M21.8269 14.7424C21.1082 14.7424 17.3359 11.6887 17.3359 8.49229C17.3359 6.012 19.3466 4 21.8269 4C24.3071 4 26.3179 6.012 26.3179 8.49229C26.3179 11.6887 22.5455 14.7424 21.8269 14.7424Z" stroke="currentColor" stroke-width="2" stroke-linecap="round" stroke-linejoin="round"></path><path d="M21.853 8.19743V8.25971M22.1053 8.21082C22.1053 8.35098 21.9917 8.4646 21.8514 8.4646C21.7113 8.4646 21.5977 8.35098 21.5977 8.21082C21.5977 8.07066 21.7113 7.95703 21.8514 7.95703C21.9917 7.95703 22.1053 8.07066 22.1053 8.21082Z" stroke="currentColor" stroke-width="2" stroke-linecap="round" stroke-linejoin="round"></path></svg>