<svg xmlns="http://www.w3.org/2000/svg" viewBox="0 0 136 21" fill="none" class="mx-auto h-[12px] text-white"><path d="M46.568 15.653H51.0558V20.3672H46.568V15.653Z" fill="currentColor"></path><path d="M73.4529 0.367676C76.6901 0.367676 79.3273 3.13975 79.3273 6.53843V20.3658H74.8395V6.53843C74.8395 5.73961 74.2134 5.08185 73.4529 5.08185H59.7174C58.957 5.08185 58.3308 5.73961 58.3308 6.53843V20.3658H53.843V6.53843C53.843 3.13792 56.4802 0.367676 59.7174 0.367676H73.4529Z" fill="currentColor"></path><path d="M107.601 0.367676V5.08185H87.9907C87.2302 5.08185 86.604 5.73961 86.604 6.53843V8.02432H82.1162V6.53843C82.1162 3.13792 84.7535 0.367676 87.9907 0.367676H107.601ZM87.9907 8.02432H107.601V12.7092H87.9907C87.2302 12.7092 86.604 13.3944 86.604 14.1951C86.604 14.9957 87.2302 15.6517 87.9907 15.6517H107.601V20.3658H87.9907C84.7535 20.3658 82.1162 17.5938 82.1162 14.1951C82.1162 10.7689 84.7535 8.02432 87.9907 8.02432Z" fill="currentColor"></path><path d="M125.252 20.3677H120.764V6.53843C120.764 5.73961 120.138 5.08185 119.377 5.08185H110.266V0.367676H119.377C122.477 0.367676 125.034 2.91073 125.226 6.13902H125.252V20.3677ZM125.252 5.08185V0.367676H135.75V5.08185H125.252Z" fill="currentColor"></path><path d="M31.3762 0.367676H5.23779L11.7663 5.08185H31.3762C32.1384 5.08185 32.7628 5.73777 32.7628 6.53843V10.0562L37.2506 13.2973V6.53843C37.2506 3.14525 34.6081 0.367676 31.3762 0.367676Z" fill="currentColor"></path><path d="M17.6424 20.3676H43.7808L37.2523 15.6534H17.6424C16.882 15.6534 16.2558 14.9957 16.2558 14.1969V10.6791L11.768 7.43799V14.195C11.7663 17.5956 14.4052 20.3676 17.6424 20.3676Z" fill="currentColor"></path><path d="M5.23779 7.43799H0.750003V20.3658H5.23779V7.43799Z" fill="currentColor"></path><path d="M0.75 0.367676V4.40761L5.07907 7.5333L5.23779 7.43799L5.23779 0.367676L0.75 0.367676Z" fill="currentColor"></path></svg>