<svg viewBox="0 0 32 32" fill="none" xmlns="http://www.w3.org/2000/svg" class="h-[32px] text-white"><path d="M15.8945 4.1875H14.4769C12.95 4.1875 11.7123 5.42517 11.7123 6.95201C11.7123 8.11257 10.4567 8.83743 9.45164 8.25651C8.12915 7.49309 6.43908 7.94678 5.67566 9.26927L4.6796 10.994C3.91617 12.3165 4.36858 14.0067 5.69108 14.77C6.69612 15.3509 6.69612 16.8007 5.69107 17.3803C4.36858 18.1437 3.91617 19.8351 4.6796 21.1563L5.67566 22.8824C6.43907 24.2048 8.12915 24.6573 9.45164 23.8939C10.4567 23.3143 11.7123 24.0391 11.7123 25.1984C11.7123 26.7252 12.95 27.9641 14.4769 27.9641H15.8945" stroke="white" stroke-width="2" stroke-linecap="round" stroke-linejoin="round"></path><path d="M15.4206 12.9141C13.6735 12.9141 12.2578 14.3297 12.2578 16.0768C12.2578 17.824 13.6735 19.2396 15.4206 19.2396" stroke="white" stroke-width="2" stroke-linecap="round" stroke-linejoin="round"></path><path d="M15.4219 8.41992V23.7339" stroke="white" stroke-width="2" stroke-linecap="round" stroke-linejoin="round"></path><path d="M15.4219 12.9894H20.7755C20.9771 12.9894 21.1729 12.9221 21.332 12.7981L23.7577 10.9062" stroke="white" stroke-width="2" stroke-linecap="round" stroke-linejoin="round"></path><path d="M23.5081 9.81849C23.5081 9.04623 24.1341 8.42018 24.9064 8.42018C25.6786 8.42018 26.3047 9.04623 26.3047 9.81849C26.3047 10.5908 25.6786 11.2168 24.9064 11.2168C24.1341 11.2168 23.5081 10.5908 23.5081 9.81849Z" stroke="white" stroke-width="2" stroke-linecap="round" stroke-linejoin="round"></path><path d="M19.2112 5.39857C19.2112 4.6263 19.8372 4.00026 20.6095 4.00026C21.3818 4.00026 22.0078 4.6263 22.0078 5.39857C22.0078 6.17083 21.3818 6.79687 20.6095 6.79687C19.8372 6.79687 19.2112 6.17083 19.2112 5.39857Z" stroke="white" stroke-width="2" stroke-linecap="round" stroke-linejoin="round"></path><path d="M15.4219 10.0786H18.4197C18.6907 10.0786 18.9341 9.9131 19.0339 9.66118L20.1648 6.72461" stroke="white" stroke-width="2" stroke-linecap="round" stroke-linejoin="round"></path><path d="M24.7881 16.0098H15.4219" stroke="white" stroke-width="2" stroke-linecap="round" stroke-linejoin="round"></path><path d="M15.4219 19.0098H20.7755C20.9771 19.0098 21.1729 19.0771 21.332 19.2011L23.7577 21.093" stroke="white" stroke-width="2" stroke-linecap="round" stroke-linejoin="round"></path><path d="M23.5081 22.1815C23.5081 22.9538 24.1341 23.5798 24.9064 23.5798C25.6786 23.5798 26.3047 22.9538 26.3047 22.1815C26.3047 21.4092 25.6786 20.7832 24.9064 20.7832C24.1341 20.7832 23.5081 21.4092 23.5081 22.1815Z" stroke="white" stroke-width="2" stroke-linecap="round" stroke-linejoin="round"></path><path d="M24.8948 16.0099C24.8948 15.2376 25.5208 14.6116 26.2931 14.6116C27.0654 14.6116 27.6914 15.2376 27.6914 16.0099C27.6914 16.7822 27.0654 17.4082 26.2931 17.4082C25.5208 17.4082 24.8948 16.7822 24.8948 16.0099Z" stroke="white" stroke-width="2" stroke-linecap="round" stroke-linejoin="round"></path><path d="M19.2112 26.6014C19.2112 27.3737 19.8372 27.9997 20.6095 27.9997C21.3818 27.9997 22.0078 27.3737 22.0078 26.6014C22.0078 25.8292 21.3818 25.2031 20.6095 25.2031C19.8372 25.2031 19.2112 25.8292 19.2112 26.6014Z" stroke="white" stroke-width="2" stroke-linecap="round" stroke-linejoin="round"></path><path d="M15.4219 21.9219H18.4197C18.6907 21.9219 18.9341 22.0873 19.0339 22.3393L20.1648 25.2759" stroke="white" stroke-width="2" stroke-linecap="round" stroke-linejoin="round"></path></svg>