<svg xmlns="http://www.w3.org/2000/svg" viewBox="0 0 32 32" fill="none" class="h-[26px] text-white"><path d="M4.68063 15.3699L14.4217 26.0723C15.2676 27.0024 16.7309 27.0024 17.5767 26.0723L27.3192 15.3685C28.1339 14.4748 28.2272 13.1386 27.5461 12.1384L23.6232 6.37596C23.1368 5.66247 22.3273 5.23438 21.4633 5.23438H10.5481C9.68416 5.23438 8.87597 5.66118 8.38949 6.37467L4.45489 12.1384C3.77253 13.1373 3.86595 14.4748 4.68063 15.3699Z" stroke="white" stroke-width="2" stroke-linecap="round" stroke-linejoin="round"></path><path d="M18.6652 5.23438L20.4879 12.1384C20.7524 13.1386 20.7161 14.4748 20.3996 15.3685L16.6129 26.0723C16.2847 27.0024 15.7152 27.0024 15.3869 26.0723L11.6003 15.3699C11.2837 14.4748 11.2474 13.1373 11.5133 12.1384L13.3412 5.23438" stroke="white" stroke-width="2" stroke-linecap="round" stroke-linejoin="round"></path><path d="M4.01074 13.6045H27.9881" stroke="white" stroke-width="2" stroke-linecap="round" stroke-linejoin="round"></path></svg>