<svg xmlns="http://www.w3.org/2000/svg" viewBox="0 0 32 32" fill="none" class="h-[26px] text-white"><path fill-rule="evenodd" clip-rule="evenodd" d="M20.5756 15.1813C23.2026 16.6978 25.2512 15.7197 26.4018 14.4626C27.585 13.1704 28.065 11.3256 27.9924 9.60667C27.8821 6.97181 27.0544 4.78711 26.8325 4.34473C26.3382 4.37327 24.0316 4.74949 21.6952 5.97027C20.1696 6.76813 18.8125 8.10437 18.2845 9.77533C17.7721 11.4009 17.9485 13.6647 20.5756 15.1813Z" stroke="white" stroke-width="2" stroke-linecap="round" stroke-linejoin="round"></path><path fill-rule="evenodd" clip-rule="evenodd" d="M13.6453 18.5997C11.7059 20.9311 9.44464 20.7235 7.93067 19.9437C6.37257 19.1407 5.28412 17.5761 4.75611 15.9376C3.94788 13.4285 3.96735 11.0921 4.02312 10.5991C4.49665 10.4564 6.79032 10.0102 9.40443 10.3462C11.1117 10.5667 12.8488 11.3503 13.9217 12.7345C14.966 14.0824 15.5836 16.2672 13.6453 18.5997Z" stroke="white" stroke-width="2" stroke-linecap="round" stroke-linejoin="round"></path><path d="M22.1104 12.2939C22.1104 12.2939 16.1453 17.3601 17.453 27.6555" stroke="white" stroke-width="2" stroke-linecap="round" stroke-linejoin="round"></path><path d="M11.1875 16.5479C11.1875 16.5479 16.6232 18.6936 17.2343 24.0075" stroke="white" stroke-width="2" stroke-linecap="round" stroke-linejoin="round"></path></svg>