<svg xmlns="http://www.w3.org/2000/svg" viewBox="0 0 32 32" fill="none" class="h-[26px] text-white"><path d="M14.3643 17.9628C14.3643 16.6915 15.3944 15.6602 16.6669 15.6602C17.9383 15.6602 18.9696 16.6915 18.9696 17.9628V25.6972C18.9696 26.9699 17.9383 27.9999 16.6669 27.9999C15.3944 27.9999 14.3643 26.9699 14.3643 25.6972V21.83" stroke="white" stroke-width="2" stroke-linecap="round" stroke-linejoin="round"></path><path fill-rule="evenodd" clip-rule="evenodd" d="M7.80755 27.9995C6.53622 27.9995 5.50488 26.9694 5.50488 25.6968V21.2834C5.50488 20.0108 6.53622 18.9795 7.80755 18.9795C9.08019 18.9795 10.1102 20.0108 10.1102 21.2834V25.6968C10.1102 26.9694 9.08019 27.9995 7.80755 27.9995Z" stroke="white" stroke-width="2" stroke-linecap="round" stroke-linejoin="round"></path><path d="M27.827 19.0233V12.3495C27.827 11.0782 26.7957 10.0469 25.5243 10.0469C24.2517 10.0469 23.2217 11.0782 23.2217 12.3495V25.6972C23.2217 26.9699 24.2517 27.9999 25.5243 27.9999C26.7957 27.9999 27.827 26.9699 27.827 25.6972V23.6936" stroke="white" stroke-width="2" stroke-linecap="round" stroke-linejoin="round"></path><path d="M5.50781 14.0928L13.2642 8.54955L16.174 11.615L25.4988 4" stroke="white" stroke-width="2" stroke-linecap="round" stroke-linejoin="round"></path></svg>