<svg viewBox="0 0 32 32" fill="none" xmlns="http://www.w3.org/2000/svg" class="h-[32px] text-white"><path fill-rule="evenodd" clip-rule="evenodd" d="M17.4276 5.87612L19.7924 10.6006C20.0242 11.0644 20.4716 11.386 20.9904 11.4604L26.2807 12.2219C27.5877 12.4106 28.1079 13.9948 27.1619 14.9024L23.3364 18.5784C22.9604 18.9398 22.7893 19.4595 22.8782 19.9698L23.781 25.1594C24.0034 26.4432 22.637 27.4226 21.4687 26.8153L16.7403 24.3633C16.2768 24.1228 15.7216 24.1228 15.2567 24.3633L10.5283 26.8153C9.36006 27.4226 7.99369 26.4432 8.21738 25.1594L9.11886 19.9698C9.20779 19.4595 9.03666 18.9398 8.66071 18.5784L4.83514 14.9024C3.8892 13.9948 4.40933 12.4106 5.71641 12.2219L11.0067 11.4604C11.5255 11.386 11.9742 11.0644 12.206 10.6006L14.5695 5.87612C15.1543 4.70796 16.8427 4.70796 17.4276 5.87612Z" stroke="white" stroke-width="2" stroke-linecap="round" stroke-linejoin="round"></path></svg>