<svg xmlns="http://www.w3.org/2000/svg" viewBox="0 0 32 32" fill="none" class="h-[26px] text-white"><path fill-rule="evenodd" clip-rule="evenodd" d="M17.8783 19.9693H14.1215C12.9652 19.9693 12.0264 19.0319 12.0264 17.8742V14.1174C12.0264 12.9596 12.9652 12.0208 14.1215 12.0208H17.8783C19.0361 12.0208 19.9749 12.9596 19.9749 14.1174V17.8742C19.9749 19.0319 19.0361 19.9693 17.8783 19.9693Z" stroke="white" stroke-width="2" stroke-linecap="round" stroke-linejoin="round"></path><path d="M28.0004 4L22.7529 9.24755" stroke="white" stroke-width="2" stroke-linecap="round" stroke-linejoin="round"></path><path d="M22.5791 4.012L27.9976 4L27.9856 9.41852" stroke="white" stroke-width="2" stroke-linecap="round" stroke-linejoin="round"></path><path d="M28.0004 27.9976L22.7529 22.75" stroke="white" stroke-width="2" stroke-linecap="round" stroke-linejoin="round"></path><path d="M22.5791 27.9847L27.9976 27.9967L27.9856 22.5781" stroke="white" stroke-width="2" stroke-linecap="round" stroke-linejoin="round"></path><path d="M4 4L9.24755 9.24755" stroke="white" stroke-width="2" stroke-linecap="round" stroke-linejoin="round"></path><path d="M9.41852 4.012L4 4L4.012 9.41852" stroke="white" stroke-width="2" stroke-linecap="round" stroke-linejoin="round"></path><path d="M4 27.9976L9.24755 22.75" stroke="white" stroke-width="2" stroke-linecap="round" stroke-linejoin="round"></path><path d="M9.41852 27.9847L4 27.9967L4.012 22.5781" stroke="white" stroke-width="2" stroke-linecap="round" stroke-linejoin="round"></path></svg>