<svg viewBox="0 0 22 22" fill="none" xmlns="http://www.w3.org/2000/svg" height="22px" width="22px"><path d="M21.8848 17.3456L18.253 21.6998C18.1744 21.7944 18.0793 21.8699 17.9735 21.9215C17.8677 21.9731 17.7536 21.9999 17.6381 22H0.421968C0.339857 22 0.25954 21.9731 0.190851 21.9228C0.122165 21.8725 0.0680896 21.8009 0.0352457 21.7168C0.00240172 21.6326 -0.00778451 21.5396 0.00593513 21.4491C0.0196548 21.3585 0.0566818 21.2744 0.112487 21.2071L3.74018 16.8529C3.81874 16.7584 3.91386 16.6829 4.01965 16.6312C4.12543 16.5796 4.23961 16.5529 4.35504 16.5527H21.5712C21.654 16.5508 21.7356 16.5764 21.8055 16.6261C21.8754 16.6759 21.9307 16.7477 21.9641 16.8324C21.9977 16.9172 22.008 17.0112 21.9938 17.1025C21.9797 17.1938 21.9418 17.2784 21.8848 17.3456ZM18.253 8.57547C18.1742 8.48133 18.079 8.40616 17.9732 8.35453C17.8675 8.30292 17.7535 8.27595 17.6381 8.27529H0.421968C0.339857 8.27533 0.25954 8.30215 0.190851 8.35247C0.122165 8.40277 0.0680896 8.47439 0.0352457 8.55854C0.00240172 8.64268 -0.00778451 8.7357 0.00593513 8.82622C0.0196548 8.91674 0.0566818 9.00085 0.112487 9.0682L3.74018 13.4246C3.81903 13.5188 3.91423 13.5939 4.01994 13.6456C4.12566 13.6972 4.23969 13.7242 4.35504 13.7248H21.5712C21.6532 13.7243 21.7331 13.6972 21.8016 13.6467C21.87 13.5962 21.9237 13.5246 21.9563 13.4405C21.9889 13.3565 21.9989 13.2636 21.985 13.1733C21.9713 13.083 21.9344 12.9991 21.8786 12.9319L18.253 8.57547ZM0.421968 5.44736H17.6381C17.7536 5.44724 17.8677 5.4205 17.9735 5.36885C18.0793 5.31721 18.1744 5.24173 18.253 5.14715L21.8848 0.793014C21.9418 0.725758 21.9797 0.641148 21.9938 0.549828C22.008 0.458508 21.9977 0.364556 21.9641 0.279797C21.9307 0.195038 21.8754 0.123258 21.8055 0.0734896C21.7356 0.0237208 21.654 -0.00181337 21.5712 0.000100192H4.35504C4.23961 0.000236051 4.12543 0.0269626 4.01965 0.0786133C3.91386 0.130264 3.81874 0.205731 3.74018 0.300308L0.112487 4.65445C0.0566818 4.7218 0.0196548 4.8059 0.00593513 4.89642C-0.00778451 4.98694 0.00240172 5.07996 0.0352457 5.16411C0.0680896 5.24826 0.122165 5.31987 0.190851 5.37018C0.25954 5.4205 0.339857 5.44731 0.421968 5.44736Z" fill="currentColor"></path></svg>