<svg viewBox="0 0 32 32" fill="none" xmlns="http://www.w3.org/2000/svg" class="h-[32px] text-white"><path fill-rule="evenodd" clip-rule="evenodd" d="M14.1679 19.914C12.885 19.914 12.0859 19.0085 12.0859 17.7295V14.2724C12.0859 12.9895 12.8902 12.084 14.1679 12.084H17.8378C19.1195 12.084 19.9159 12.9895 19.9159 14.2724V17.7295C19.9159 19.0085 19.1195 19.914 17.8378 19.914H14.1679Z" stroke="currentColor" stroke-width="2" stroke-linecap="round" stroke-linejoin="round"></path><path d="M6.69531 20.1117C6.69531 23.1489 8.59595 25.2998 11.6422 25.2998H20.3592C23.4067 25.2998 25.2969 23.1489 25.2969 20.1117V11.8968C25.2969 8.85056 23.4067 6.69824 20.3592 6.69824H11.6422C8.60503 6.69824 6.69531 8.85056 6.69531 11.8968V20.1117Z" stroke="currentColor" stroke-width="2" stroke-linecap="round" stroke-linejoin="round"></path><path d="M12.8203 27.9973V25.3027M19.1855 27.9973V25.3027" stroke="currentColor" stroke-width="2" stroke-linecap="round" stroke-linejoin="round"></path><path d="M6.69463 12.8232H4M6.69463 19.1783H4" stroke="currentColor" stroke-width="2" stroke-linecap="round" stroke-linejoin="round"></path><path d="M12.8203 6.70047V4.00586M19.1855 6.70047V4.00586" stroke="currentColor" stroke-width="2" stroke-linecap="round" stroke-linejoin="round"></path><path d="M28.0019 12.8223H25.2969M28.0019 19.1773H25.2969" stroke="currentColor" stroke-width="2" stroke-linecap="round" stroke-linejoin="round"></path></svg>