<svg viewBox="0 0 32 32" fill="none" xmlns="http://www.w3.org/2000/svg" class="h-[32px] text-white"><path d="M4.77225 21.7404L4.00164 9.77006C3.95883 9.09934 4.76447 8.72961 5.24448 9.19794L8.73817 12.6047C8.73817 12.6047 12.7313 8.6297 14.8096 6.55139C15.4777 5.88197 16.5584 5.88457 17.2227 6.55529C19.2815 8.6323 23.2617 12.6112 23.2617 12.6112C23.2617 12.6112 25.3205 10.5913 26.758 9.18237C27.238 8.71143 28.0424 9.08637 27.9983 9.75709L27.2276 21.7392C27.0759 24.1028 25.1131 25.9426 22.7453 25.9426H9.2558C6.88689 25.9426 4.92533 24.1028 4.77225 21.7404Z" stroke="white" stroke-width="2" stroke-linecap="round" stroke-linejoin="round"></path><path d="M15.9975 19.4865V19.5488M16.2498 19.5C16.2498 19.6401 16.1361 19.7537 15.9959 19.7537C15.8558 19.7537 15.7422 19.6401 15.7422 19.5C15.7422 19.3597 15.8558 19.2461 15.9959 19.2461C16.1361 19.2461 16.2498 19.3597 16.2498 19.5Z" stroke="white" stroke-width="2" stroke-linecap="round" stroke-linejoin="round"></path></svg>